#define car_width 20
#define car_height 15
static unsigned char car_bits[] = {
   0x3c, 0xcf, 0x03, 0xe0, 0x7f, 0x00, 0xf0, 0xff, 0x00, 0x38, 0xc0, 0x00,
   0x18, 0xc0, 0x01, 0x1f, 0x80, 0x0f, 0xfe, 0xff, 0x07, 0xfe, 0xff, 0x07,
   0xe6, 0x7f, 0x06, 0xc2, 0x3f, 0x04, 0xe6, 0x7f, 0x06, 0xfe, 0xff, 0x07,
   0xfc, 0xff, 0x03, 0x1c, 0x80, 0x03, 0x1c, 0x80, 0x03 };
