#define controller_width 20
#define controller_height 14
static unsigned char controller_bits[] = {
   0x00, 0x02, 0x00, 0x00, 0x02, 0x00, 0x00, 0x02, 0x00, 0xf0, 0xff, 0x00,
   0x0c, 0x00, 0x03, 0x02, 0x00, 0x04, 0x01, 0x00, 0x08, 0x11, 0x40, 0x08,
   0x39, 0xe0, 0x08, 0x11, 0x40, 0x08, 0x01, 0x00, 0x08, 0x02, 0x00, 0x04,
   0xc4, 0x1f, 0x02, 0x38, 0xe0, 0x01 };
